<svg width="41" height="40" viewBox="0 0 41 40" fill="none" xmlns="http://www.w3.org/2000/svg">
<path d="M30.9775 18.2003H38.4565C38.7773 18.1999 39.0909 18.1047 39.3577 17.9268C39.6245 17.7488 39.8326 17.496 39.9558 17.2002C40.079 16.9044 40.1118 16.5788 40.05 16.2645C39.9883 15.9501 39.8347 15.661 39.6087 15.4336L24.6225 0.471019C24.3951 0.24579 24.1062 0.0926104 23.792 0.0307081C23.4778 -0.0311942 23.1523 0.000937356 22.8563 0.123066C22.5603 0.245195 22.3071 0.451884 22.1283 0.717197C21.9495 0.982509 21.8532 1.29462 21.8514 1.61438V9.08155C21.8508 9.51245 22.0211 9.92606 22.3251 10.232L29.8323 17.7203C29.9822 17.8716 30.1604 17.9919 30.357 18.0743C30.5535 18.1567 30.7644 18.1995 30.9775 18.2003Z" fill="#FF001D"/>
<path d="M18.239 9.08155V1.61438C18.2373 1.29462 18.141 0.982509 17.9622 0.717196C17.7834 0.451884 17.5302 0.245195 17.2342 0.123066C16.9382 0.000937356 16.6127 -0.0311942 16.2985 0.0307081C15.9843 0.0926104 15.6954 0.24579 15.468 0.471019L0.481788 15.4336C0.252743 15.6592 0.0962531 15.9479 0.0322977 16.2628C-0.0316577 16.5777 -0.000179756 16.9044 0.12272 17.2013C0.24562 17.4983 0.454363 17.7519 0.722293 17.9298C0.990223 18.1077 1.30518 18.2019 1.62696 18.2003H9.10594C9.31906 18.1995 9.52994 18.1567 9.72645 18.0743C9.92297 17.9919 10.1013 17.8716 10.2511 17.7203L17.7584 10.232C18.0649 9.92721 18.2378 9.51346 18.239 9.08155Z" fill="#FF001D"/>
<path d="M9.11321 21.8068H1.63423C1.31391 21.8066 1.00073 21.9013 0.734332 22.0789C0.467934 22.2565 0.26029 22.509 0.137683 22.8044C0.0150755 23.0999 -0.0169796 23.425 0.045567 23.7387C0.108114 24.0523 0.26245 24.3404 0.48905 24.5664L15.4682 39.529C15.6955 39.7542 15.9845 39.9074 16.2987 39.9693C16.6129 40.0312 16.9384 39.9991 17.2344 39.877C17.5304 39.7548 17.7836 39.5481 17.9624 39.2828C18.1412 39.0175 18.2375 38.7054 18.2392 38.3856V30.9185C18.2398 30.4876 18.0696 30.074 17.7656 29.768L10.2584 22.315C10.1109 22.1585 9.93367 22.033 9.73704 21.9458C9.54041 21.8585 9.32834 21.8113 9.11321 21.8068Z" fill="#FF001D"/>
<path d="M21.8514 30.9186V38.3857C21.8532 38.7055 21.9495 39.0176 22.1283 39.2829C22.3071 39.5482 22.5603 39.7549 22.8563 39.877C23.1523 39.9992 23.4778 40.0313 23.792 39.9694C24.1062 39.9075 24.3951 39.7543 24.6225 39.5291L39.6087 24.5665C39.8357 24.3401 39.9902 24.0513 40.0525 23.737C40.1149 23.4227 40.0822 23.097 39.9587 22.8012C39.8353 22.5055 39.6265 22.2531 39.359 22.076C39.0915 21.899 38.7774 21.8053 38.4565 21.8069H30.9775C30.7649 21.8068 30.5543 21.8485 30.3578 21.9296C30.1613 22.0107 29.9827 22.1297 29.8323 22.2798L22.3251 29.7681C22.0211 30.074 21.8508 30.4877 21.8514 30.9186Z" fill="#FF001D"/>
</svg>
